<svg width="710" height="513" viewBox="0 0 710 513" fill="none" xmlns="http://www.w3.org/2000/svg">
<g clip-path="url(#clip0)">
<path d="M555.494 56.7639C554.28 56.7639 552.762 57.0675 551.548 57.9781L117.777 275.32C110.492 279.873 112.92 286.552 120.812 286.552C120.812 286.552 323.279 286.552 379.132 286.552C398.863 286.552 412.826 277.141 420.718 267.124C457.448 220.985 560.047 66.174 560.047 66.174C563.386 60.103 559.743 56.7639 555.494 56.7639Z" fill="#1F2A3D"/>
<path d="M122.937 57.9781C118.08 54.9426 110.188 58.2817 114.741 66.4775C114.741 66.4775 170.898 151.775 215.216 214.61L325.1 159.667L122.937 57.9781Z" fill="#E8C52D"/>
<path d="M415.558 286.855C484.16 286.855 553.369 286.855 553.369 286.855C561.261 286.855 563.689 279.873 556.404 275.624L462.911 228.573C449.555 247.393 437.717 263.482 429.217 274.106C425.271 278.963 420.718 283.212 415.558 286.855Z" fill="#E8C52D"/>
<path d="M337.242 125.063C371.777 125.063 399.773 97.0665 399.773 62.5314C399.773 27.9962 371.777 0 337.242 0C302.708 0 274.711 27.9962 274.711 62.5314C274.711 97.0665 302.708 125.063 337.242 125.063Z" fill="#1F2A3D"/>
<path d="M79.2262 329.656C85.6007 335.423 88.6362 345.44 88.6362 360.011C88.6362 374.278 85.6007 384.295 79.5297 389.152C73.4587 394.008 62.2274 396.437 45.8358 396.437H27.3194V435.595C27.3194 437.416 27.0158 438.023 25.1945 438.023H2.12484C0.303548 438.023 0 437.72 0 435.595V324.799C0 323.585 0.607097 322.978 2.12484 322.674C16.6952 321.46 31.2655 320.853 45.5323 320.853C61.6204 321.156 72.8516 323.888 79.2262 329.656ZM27.3194 345.137V376.402H42.4968C49.4784 376.402 54.3352 375.492 56.7636 373.367C59.192 371.242 60.4062 366.992 60.4062 360.921C60.4062 348.476 56.46 344.833 42.1932 344.833H27.3194V345.137Z" fill="#1F2A3D"/>
<path d="M175.451 329.656C181.825 335.423 184.861 345.44 184.861 360.011C184.861 381.866 178.79 391.276 163.005 394.919L188.2 435.291C189.414 436.809 188.503 438.327 186.379 438.327H163.309C160.273 438.327 159.059 437.416 157.238 434.988L132.954 396.74H123.544V435.898C123.544 437.72 123.241 438.327 121.419 438.327H98.3496C96.5283 438.327 96.2247 438.023 96.2247 435.898V325.102C96.2247 323.888 96.8318 323.281 98.3496 322.978C112.92 321.763 127.49 321.156 141.757 321.156C158.149 321.156 169.076 323.888 175.451 329.656ZM123.848 345.137V376.402H139.025C146.007 376.402 150.863 375.492 153.292 373.367C155.72 371.242 156.934 366.992 156.934 360.921C156.934 348.476 152.988 344.833 138.722 344.833H123.848V345.137Z" fill="#1F2A3D"/>
<path d="M280.783 333.602C287.764 341.798 291.103 357.279 291.103 380.349C291.103 403.722 288.675 417.382 280.783 426.792C273.194 436.202 261.355 439.237 241.625 439.237C222.501 439.237 209.449 434.988 202.467 426.792C195.789 418.596 192.146 403.115 192.146 380.349C192.146 356.975 194.575 343.315 202.467 333.905C210.359 324.495 221.894 321.156 241.625 321.156C260.748 321.156 273.801 325.406 280.783 333.602ZM224.019 352.422C221.287 357.279 219.769 366.385 219.769 380.045C219.769 393.401 221.287 402.811 224.019 407.668C226.751 412.525 232.518 414.953 241.321 414.953C250.124 414.953 255.892 412.525 258.623 407.668C261.355 402.811 262.873 393.705 262.873 380.045C262.873 366.385 261.355 357.279 258.623 352.422C255.892 347.565 250.124 345.137 241.321 345.137C232.822 345.137 227.054 347.565 224.019 352.422Z" fill="#1F2A3D"/>
<path d="M336.332 372.153C337.243 372.153 337.85 372.76 337.85 373.67V386.116C337.85 387.027 337.243 387.634 336.332 387.634H305.37C304.459 387.634 303.852 387.027 303.852 386.116V373.67C303.852 372.76 304.459 372.153 305.37 372.153H336.332Z" fill="#1F2A3D"/>
<path d="M422.843 322.978C424.057 322.978 424.664 323.585 424.664 324.799V331.173C424.664 332.388 424.057 332.995 422.843 332.995H364.258V375.492H417.379C418.594 375.492 419.201 376.099 419.201 377.313V383.688C419.201 384.902 418.594 385.509 417.379 385.509H364.258V432.256C364.258 433.47 363.651 434.077 362.437 434.077H354.848C353.634 434.077 353.027 433.47 353.027 432.256V325.406C353.027 323.888 353.634 323.281 355.152 323.281H422.843V322.978Z" fill="#1F2A3D"/>
<path d="M444.395 322.978C445.609 322.978 446.217 323.585 446.217 324.799V432.256C446.217 433.47 445.609 434.077 444.395 434.077H436.807C435.592 434.077 434.985 433.47 434.985 432.256V324.799C434.985 323.585 435.592 322.978 436.807 322.978H444.395Z" fill="#1F2A3D"/>
<path d="M527.871 323.888C528.781 323.888 529.389 324.495 529.389 325.406V330.566C529.389 331.781 529.085 332.388 527.871 332.388H495.088C480.214 332.388 473.232 336.941 473.232 347.262V349.69C473.232 358.493 475.66 362.439 485.374 366.385L519.068 380.652C531.513 386.116 534.852 394.615 534.852 405.847V410.4C534.852 419.203 531.513 425.578 527.264 428.917C525.139 430.434 522.103 431.952 518.764 432.863C511.783 434.684 506.319 434.988 497.516 434.988C483.856 434.988 471.714 434.381 461.394 433.47C460.483 433.47 459.876 432.863 459.876 431.649V426.792C459.876 425.881 460.483 425.274 461.697 425.274H501.159C516.032 425.274 523.621 421.631 523.621 410.4V406.757C523.621 398.865 521.193 393.098 512.086 389.151L475.66 374.278C471.714 372.76 468.982 370.635 466.554 367.903C462.304 362.439 461.394 357.886 461.394 349.994V346.654C461.394 338.459 464.126 332.388 468.375 328.745C475.661 323.281 485.678 322.067 498.427 322.067C507.533 322.37 517.247 322.674 527.871 323.888Z" fill="#1F2A3D"/>
<path d="M610.133 323.888C611.044 323.888 611.651 324.495 611.651 325.406V330.566C611.651 331.781 611.347 332.388 610.133 332.388H577.35C562.476 332.388 555.494 336.941 555.494 347.262V349.69C555.494 358.493 557.922 362.439 567.636 366.385L601.33 380.652C613.775 386.116 617.115 394.615 617.115 405.847V410.4C617.115 419.203 613.775 425.578 609.526 428.917C607.401 430.434 604.365 431.952 601.026 432.863C594.045 434.684 588.581 434.988 579.778 434.988C566.118 434.988 553.976 434.381 543.656 433.47C542.745 433.47 542.138 432.863 542.138 431.649V426.792C542.138 425.881 542.745 425.274 543.959 425.274H583.421C598.294 425.274 605.883 421.631 605.883 410.4V406.757C605.883 398.865 603.455 393.098 594.348 389.151L557.922 374.278C553.976 372.76 551.244 370.635 548.816 367.903C544.566 362.439 543.656 357.886 543.656 349.994V346.654C543.656 338.459 546.388 332.388 550.637 328.745C557.922 323.281 567.94 322.067 580.689 322.067C590.099 322.37 599.509 322.674 610.133 323.888Z" fill="#1F2A3D"/>
<path d="M678.128 325.102C680.252 326.924 682.377 331.781 684.502 339.369L710 431.952C710.304 433.166 710 434.077 708.482 434.077H699.983C699.376 434.077 698.769 433.47 698.465 432.256L688.752 397.954H642.005L632.292 432.256C631.988 433.47 631.381 434.077 630.47 434.077H621.971C620.757 434.077 620.15 433.47 620.453 431.952L646.862 339.369C648.987 331.781 651.112 327.227 653.237 325.406C655.361 323.585 659.308 322.37 665.379 322.37C671.753 322.37 676.306 323.281 678.128 325.102ZM660.522 333.905C659.915 334.816 658.7 337.548 657.486 342.101L644.434 387.937H686.02L673.574 342.101C672.36 337.548 671.449 335.12 670.539 333.905C669.932 332.995 668.11 332.388 665.075 332.388C662.95 332.084 661.432 332.691 660.522 333.905Z" fill="#1F2A3D"/>
<path d="M77.1015 468.075C78.0121 468.682 78.6192 470.199 79.2263 472.628L87.4221 502.679C87.4221 503.286 87.4221 503.59 86.815 503.59H83.1724C82.8689 503.59 82.5653 503.59 82.5653 502.679L79.5299 492.055H65.2631L62.2276 502.679C62.2276 503.286 61.924 503.59 61.6205 503.59H57.6744C57.0673 503.59 57.0673 503.59 57.0673 502.679L65.5666 472.628C66.1737 470.199 67.0844 468.682 67.6915 468.075C68.6021 467.467 69.8163 467.164 72.2447 467.164C74.6731 466.86 76.4944 467.164 77.1015 468.075ZM70.1198 473.842L66.1737 488.109H78.3157L74.6731 473.842C74.3695 472.628 74.066 472.021 73.7624 471.717C73.4589 471.414 73.1553 471.414 72.2447 471.414C71.0305 471.11 70.7269 471.414 70.1198 473.842Z" fill="#1F2A3D"/>
<path d="M112.616 479.609C114.134 481.431 114.741 484.77 114.741 490.234C114.741 495.698 114.134 499.037 112.616 500.858C111.099 502.679 108.367 503.59 103.814 503.59C101.385 503.59 99.2603 503.59 97.439 503.286V512.089C97.439 512.696 97.1355 512.696 96.8319 512.696H93.7964C93.1893 512.696 93.1893 512.393 93.1893 512.089V478.699C93.1893 478.395 93.4929 478.092 94.1 477.788C97.439 477.181 100.778 476.878 104.117 476.878C108.063 476.878 111.099 477.788 112.616 479.609ZM97.439 481.127V499.34C99.5638 499.644 101.385 499.644 103.51 499.644C106.242 499.644 108.063 499.037 108.974 497.823C109.885 496.608 110.188 494.18 110.188 490.234C110.188 486.288 109.885 483.859 108.974 482.645C108.063 481.431 106.242 480.824 103.51 480.824H97.439V481.127Z" fill="#1F2A3D"/>
<path d="M134.169 477.485C134.776 477.485 134.776 477.788 134.776 478.395V480.52C134.776 481.127 134.472 481.127 133.865 481.127H129.616C126.277 481.127 125.366 481.734 125.366 483.859V502.983C125.366 503.59 125.062 503.59 124.759 503.59H121.723C121.116 503.59 121.116 503.286 121.116 502.983V482.645C121.116 480.52 122.027 479.002 122.937 478.395C123.545 478.092 124.152 477.788 124.759 477.485C126.277 477.181 127.187 477.181 128.705 477.181C131.437 476.877 133.258 477.181 134.169 477.485Z" fill="#1F2A3D"/>
<path d="M158.453 479.609C159.97 481.431 160.577 484.77 160.577 489.627V491.144C160.577 492.055 160.274 492.359 158.756 492.359H143.579C143.579 495.394 144.186 497.215 144.793 498.126C145.703 499.037 147.221 499.644 149.953 499.644H157.845C158.453 499.644 158.453 499.947 158.453 500.251V502.376C158.453 502.679 158.149 502.983 157.845 503.286C155.721 503.59 152.989 503.59 149.953 503.59C145.4 503.59 142.668 502.679 141.15 500.858C139.632 499.037 139.025 495.698 139.025 490.234C139.025 484.77 139.632 481.431 141.15 479.609C142.668 477.788 145.4 476.878 149.953 476.878C154.203 476.878 156.935 477.788 158.453 479.609ZM145.096 482.645C144.186 483.556 143.882 485.681 143.882 488.716H156.328C156.328 485.681 155.721 483.556 155.113 482.645C154.203 481.734 152.685 481.127 150.257 481.127C147.525 481.127 145.703 481.431 145.096 482.645Z" fill="#1F2A3D"/>
<path d="M183.04 477.485C184.254 477.788 185.468 478.092 186.379 479.002C188.2 480.52 188.807 483.252 188.807 488.412V502.983C188.807 503.59 188.504 503.59 187.897 503.59H184.861C184.254 503.59 184.254 503.286 184.254 502.983V488.716C184.254 485.68 183.951 484.163 183.344 482.949C183.04 482.341 182.736 482.038 182.129 481.734C180.915 481.127 180.308 481.127 178.183 481.127H171.505V502.679C171.505 503.286 171.202 503.286 170.898 503.286H167.863C167.255 503.286 167.255 502.983 167.255 502.679V478.395C167.255 477.788 167.559 477.788 167.863 477.485C170.595 476.878 173.934 476.574 177.88 476.574C179.701 476.878 181.522 477.181 183.04 477.485Z" fill="#1F2A3D"/>
<path d="M216.43 467.164C217.037 467.164 217.037 467.467 217.037 467.771V501.769C217.037 502.072 216.734 502.376 216.127 502.679C212.788 503.286 209.449 503.59 206.109 503.59C202.163 503.59 200.039 502.983 198.217 502.072C195.485 500.251 195.182 496.912 194.878 490.537C194.878 485.073 195.485 481.734 197.003 479.913C198.521 478.092 201.253 477.181 205.806 477.181C208.538 477.181 210.359 477.181 212.18 477.485V468.075C212.18 467.467 212.484 467.467 212.788 467.467H216.43V467.164ZM212.484 481.127H206.413C203.681 481.127 201.86 481.734 200.949 482.949C200.038 484.163 199.735 486.591 199.735 490.537C199.735 494.483 200.038 496.912 200.949 498.126C201.86 499.34 203.681 499.947 206.413 499.947C208.538 499.947 210.359 499.947 212.484 499.644V481.127Z" fill="#1F2A3D"/>
<path d="M226.751 472.324C224.93 472.324 224.019 471.414 224.019 469.592C224.019 467.771 224.93 466.86 226.751 466.86C228.572 466.86 229.483 467.771 229.483 469.592C229.786 471.414 228.876 472.324 226.751 472.324ZM228.572 477.181C229.179 477.181 229.179 477.485 229.179 477.788V502.376C229.179 502.983 228.876 502.983 228.572 502.983H225.537C224.93 502.983 224.93 502.679 224.93 502.376V477.788C224.93 477.181 225.233 477.181 225.537 477.181H228.572Z" fill="#1F2A3D"/>
<path d="M255.285 477.181C255.892 477.181 256.195 477.485 256.195 477.788V479.002C256.195 479.306 256.195 479.61 255.892 479.913L241.928 499.34H255.892C256.499 499.34 256.802 499.644 256.802 499.947V502.679C256.802 503.286 256.499 503.286 255.892 503.286H235.858C235.25 503.286 234.947 502.983 234.947 502.679V501.465C234.947 501.162 234.947 500.858 235.25 500.554L249.214 481.431H236.161C235.554 481.431 235.25 481.127 235.25 480.824V478.092C235.25 477.485 235.554 477.485 236.161 477.485H255.285V477.181Z" fill="#1F2A3D"/>
<path d="M281.39 484.466V501.162C281.39 501.769 281.086 502.376 280.479 502.376C278.658 502.983 275.015 503.286 269.855 503.286C266.516 503.286 264.088 502.679 262.873 501.769C261.356 500.858 260.749 498.733 260.749 495.698C260.749 490.234 263.48 488.412 269.248 488.412H276.837V485.073C276.837 482.038 275.015 480.824 270.766 480.824H263.48C262.873 480.824 262.873 480.824 262.873 480.217V478.395C262.873 477.788 262.873 477.788 263.48 477.485C265.605 477.181 268.034 476.878 270.766 476.878C278.051 476.878 281.39 479.306 281.39 484.466ZM276.837 492.359H269.248C266.516 492.359 265.302 493.269 265.302 496.001C265.302 499.037 266.819 499.947 270.766 499.947C273.498 499.947 275.319 499.644 276.837 499.34V492.359Z" fill="#1F2A3D"/>
<path d="M309.013 477.788C309.62 477.788 309.923 478.092 309.923 478.699V501.162C309.923 506.018 309.62 508.75 307.798 510.572C305.977 512.393 303.549 513 298.995 513C296.567 513 294.139 513 292.014 512.696C291.71 512.696 291.407 512.393 291.407 511.786V509.965C291.407 509.357 291.71 509.357 292.014 509.357H298.692C301.424 509.357 302.942 509.054 303.852 508.143C304.763 507.233 305.066 506.018 305.066 503.59V503.286C303.549 503.59 301.424 503.59 298.692 503.59C294.139 503.59 291.103 502.679 289.889 500.858C288.371 499.037 287.764 495.394 287.764 490.234C287.764 484.77 288.068 481.734 289.889 479.609C291.71 477.485 294.139 476.878 298.995 476.878C303.245 476.878 306.584 477.181 309.013 477.788ZM305.066 481.127H298.995C296.264 481.127 294.442 481.734 293.532 482.949C292.621 484.163 292.317 486.591 292.317 490.537C292.317 494.483 292.621 496.912 293.532 498.126C294.442 499.34 296.264 499.947 298.995 499.947C301.12 499.947 303.245 499.947 305.066 499.644V481.127Z" fill="#1F2A3D"/>
<path d="M335.725 479.609C337.242 481.431 337.849 484.77 337.849 489.627V491.144C337.849 492.055 337.546 492.359 336.028 492.359H320.851C320.851 495.394 321.458 497.215 322.065 498.126C322.976 499.037 324.493 499.644 327.225 499.644H335.118C335.725 499.644 335.725 499.947 335.725 500.251V502.376C335.725 502.679 335.421 502.983 335.118 503.286C332.993 503.59 330.261 503.59 327.225 503.59C322.672 503.59 319.94 502.679 318.422 500.858C316.905 499.037 316.297 495.698 316.297 490.234C316.297 484.77 316.905 481.431 318.422 479.609C319.94 477.788 322.672 476.878 327.225 476.878C331.778 476.878 334.51 477.788 335.725 479.609ZM322.368 482.645C321.458 483.556 321.154 485.681 321.154 488.716H333.6C333.6 485.681 332.993 483.556 332.386 482.645C331.475 481.734 329.957 481.127 327.529 481.127C324.797 481.127 323.279 481.431 322.368 482.645Z" fill="#1F2A3D"/>
<path d="M377.007 478.699C378.829 480.217 379.436 482.949 379.436 487.805V502.376C379.436 502.983 379.132 502.983 378.829 502.983H375.793C375.186 502.983 375.186 502.679 375.186 502.376V488.716C375.186 485.68 374.883 484.163 374.275 482.949C373.972 482.341 373.668 482.038 373.061 481.734C371.847 481.127 371.24 481.127 369.115 481.127C366.99 481.127 365.169 481.127 363.651 481.431C364.258 482.949 364.562 485.073 364.562 488.109V502.679C364.562 503.286 364.258 503.286 363.955 503.286H360.919C360.312 503.286 360.312 502.983 360.312 502.679V488.412C360.312 485.073 360.009 483.252 359.098 482.038C357.884 481.127 357.277 481.127 354.545 481.127H349.688V502.679C349.688 503.286 349.384 503.286 349.081 503.286H346.045C345.438 503.286 345.438 502.983 345.438 502.679V478.395C345.438 478.092 345.742 477.788 346.045 477.485C348.777 476.878 351.206 476.574 353.938 476.574C357.277 476.574 359.705 477.181 361.83 478.092C364.562 477.181 367.294 476.574 369.419 476.574C372.758 476.878 375.49 477.181 377.007 478.699Z" fill="#1F2A3D"/>
<path d="M421.326 467.467C421.933 467.467 422.236 467.771 422.236 468.378V470.503C422.236 471.11 421.933 471.11 421.629 471.11H412.826C408.88 471.11 406.148 472.021 404.934 473.842C403.72 475.663 403.113 479.609 403.113 485.073C403.113 490.537 403.72 494.483 404.934 496.305C406.148 498.126 408.88 499.037 412.826 499.037H421.629C422.236 499.037 422.236 499.34 422.236 499.644V501.769C422.236 502.376 421.933 502.679 421.326 502.679C419.201 502.983 416.165 502.983 412.523 502.983C406.452 502.983 403.113 502.072 400.988 499.037C398.863 496.001 397.952 492.055 397.952 484.466C397.952 477.181 398.559 472.931 400.988 469.896C403.113 466.86 406.755 465.95 412.523 465.95C416.165 466.86 419.201 467.164 421.326 467.467Z" fill="#1F2A3D"/>
<path d="M437.717 476.878C440.146 476.878 441.967 477.181 443.485 477.485C446.216 478.092 448.038 480.52 448.645 483.556C448.948 485.073 448.948 487.198 448.948 490.234C448.948 493.269 448.948 495.394 448.645 496.912C448.038 500.251 446.216 502.376 443.485 502.983C441.967 503.286 440.146 503.59 437.717 503.59C435.289 503.59 433.467 503.286 431.95 502.983C429.218 502.072 427.397 499.947 426.789 496.912C426.486 495.394 426.486 492.966 426.486 490.234C426.486 487.502 426.486 485.073 426.789 483.556C427.397 480.217 428.914 478.092 431.95 477.485C433.467 477.181 435.289 476.878 437.717 476.878ZM432.253 482.645C431.343 483.859 431.039 486.288 431.039 490.234C431.039 494.18 431.343 496.608 432.253 497.823C433.164 499.037 434.985 499.644 437.717 499.644C440.449 499.644 442.27 499.037 443.181 497.823C444.092 496.608 444.395 494.18 444.395 490.234C444.395 486.288 444.092 483.859 443.181 482.645C442.27 481.431 440.753 480.824 437.717 480.824C434.682 480.824 432.86 481.734 432.253 482.645Z" fill="#1F2A3D"/>
<path d="M468.375 477.485C468.982 477.485 468.982 477.788 468.982 478.395V480.52C468.982 481.127 468.679 481.127 468.072 481.127H463.822C460.483 481.127 459.572 481.734 459.572 483.859V502.983C459.572 503.59 459.269 503.59 458.965 503.59H455.93C455.323 503.59 455.323 503.286 455.323 502.983V482.645C455.323 480.52 456.233 479.002 457.144 478.395C457.751 478.092 458.358 477.788 458.965 477.485C460.483 477.181 461.394 477.181 462.911 477.181C465.643 476.877 467.161 477.181 468.375 477.485Z" fill="#1F2A3D"/>
<path d="M493.57 479.609C495.088 481.431 495.695 484.77 495.695 490.234C495.695 495.698 495.088 499.037 493.57 500.858C492.052 502.679 489.32 503.59 484.767 503.59C482.339 503.59 480.214 503.59 478.393 503.286V512.089C478.393 512.696 478.089 512.696 477.785 512.696H474.75C474.143 512.696 474.143 512.393 474.143 512.089V478.699C474.143 478.395 474.446 478.092 475.053 477.788C478.393 477.181 481.732 476.878 485.071 476.878C489.017 476.878 492.052 477.788 493.57 479.609ZM478.393 481.127V499.34C480.517 499.644 482.339 499.644 484.463 499.644C487.195 499.644 489.017 499.037 489.927 497.823C490.838 496.608 491.142 494.18 491.142 490.234C491.142 486.288 490.838 483.859 489.927 482.645C489.017 481.431 487.195 480.824 484.463 480.824H478.393V481.127Z" fill="#1F2A3D"/>
<path d="M512.693 476.878C515.122 476.878 516.943 477.181 518.461 477.485C521.193 478.092 523.014 480.52 523.621 483.556C523.925 485.073 523.925 487.198 523.925 490.234C523.925 493.269 523.925 495.394 523.621 496.912C523.014 500.251 521.193 502.376 518.461 502.983C516.943 503.286 515.122 503.59 512.693 503.59C510.265 503.59 508.444 503.286 506.926 502.983C504.194 502.072 502.373 499.947 501.766 496.912C501.462 495.394 501.462 492.966 501.462 490.234C501.462 487.502 501.462 485.073 501.766 483.556C502.373 480.217 503.891 478.092 506.926 477.485C508.444 477.181 510.569 476.878 512.693 476.878ZM507.533 482.645C506.622 483.859 506.319 486.288 506.319 490.234C506.319 494.18 506.622 496.608 507.533 497.823C508.444 499.037 510.265 499.644 512.997 499.644C515.729 499.644 517.55 499.037 518.461 497.823C519.372 496.608 519.675 494.18 519.675 490.234C519.675 486.288 519.372 483.859 518.461 482.645C517.55 481.431 516.033 480.824 512.997 480.824C509.962 480.824 508.14 481.734 507.533 482.645Z" fill="#1F2A3D"/>
<path d="M543.352 477.485C543.959 477.485 543.959 477.788 543.959 478.395V480.52C543.959 481.127 543.655 481.127 543.048 481.127H538.799C535.46 481.127 534.549 481.734 534.549 483.859V502.983C534.549 503.59 534.245 503.59 533.942 503.59H530.906C530.299 503.59 530.299 503.286 530.299 502.983V482.645C530.299 480.52 531.21 479.002 532.121 478.395C532.728 478.092 533.335 477.788 533.942 477.485C535.46 477.181 536.37 477.181 537.888 477.181C540.62 476.877 542.441 477.181 543.352 477.485Z" fill="#1F2A3D"/>
<path d="M567.029 484.466V501.162C567.029 501.769 566.725 502.376 566.118 502.376C564.297 502.983 560.654 503.286 555.494 503.286C552.155 503.286 549.726 502.679 548.512 501.769C546.995 500.858 546.387 498.733 546.387 495.698C546.387 490.234 549.119 488.412 554.887 488.412H562.475V485.073C562.475 482.038 560.654 480.824 556.405 480.824H549.119C548.512 480.824 548.512 480.824 548.512 480.217V478.395C548.512 477.788 548.512 477.788 549.119 477.485C551.244 477.181 553.673 476.878 556.405 476.878C563.69 476.878 567.029 479.306 567.029 484.466ZM562.475 492.359H554.887C552.155 492.359 550.941 493.269 550.941 496.001C550.941 499.037 552.458 499.947 556.405 499.947C559.136 499.947 560.958 499.644 562.475 499.34V492.359Z" fill="#1F2A3D"/>
<path d="M579.474 469.896C580.081 469.896 580.385 469.896 580.385 470.503V477.181H585.545C586.152 477.181 586.456 477.485 586.456 477.788V479.913C586.456 480.52 586.152 480.52 585.545 480.52H580.385V496.608C580.385 498.733 580.992 499.34 583.42 499.34H585.849C586.456 499.34 586.759 499.644 586.759 499.947V502.376C586.759 502.679 586.456 502.983 586.152 503.286C585.241 503.59 584.331 503.59 583.42 503.59C581.599 503.59 580.992 503.59 579.474 503.286C577.349 502.679 576.439 501.465 576.135 498.126V480.824H573.403C572.796 480.824 572.796 480.52 572.796 480.217V478.092C572.796 477.485 573.099 477.485 573.403 477.485H576.135V471.717C576.135 471.414 576.438 471.11 576.742 470.807L579.474 469.896Z" fill="#1F2A3D"/>
<path d="M594.045 472.324C592.223 472.324 591.313 471.414 591.313 469.592C591.313 467.771 592.223 466.86 594.045 466.86C595.866 466.86 596.777 467.771 596.777 469.592C596.777 471.414 595.866 472.324 594.045 472.324ZM595.562 477.181C596.17 477.181 596.17 477.485 596.17 477.788V502.376C596.17 502.983 595.866 502.983 595.562 502.983H592.527C591.92 502.983 591.92 502.679 591.92 502.376V477.788C591.92 477.181 592.223 477.181 592.527 477.181H595.562Z" fill="#1F2A3D"/>
<path d="M624.703 477.181C625.31 477.181 625.31 477.181 625.31 478.092L619.846 498.126C619.543 499.037 619.543 499.644 619.239 499.947C618.936 500.554 618.632 502.072 618.329 502.376C618.025 502.679 617.418 503.286 616.507 503.286C615.597 503.286 614.686 503.59 613.472 503.59C611.043 503.59 610.133 503.286 609.222 502.679C608.919 502.376 608.919 502.072 608.615 501.769C608.008 500.554 608.008 499.947 607.401 498.126L601.937 478.092C601.937 477.485 601.937 477.181 602.544 477.181H606.187C606.49 477.181 606.49 477.181 606.794 478.092L611.954 497.215C612.561 499.34 612.865 499.644 613.775 499.644C614.99 499.644 615.293 499.34 615.9 497.215L620.757 478.092C620.757 477.485 621.061 477.181 621.364 477.181H624.703Z" fill="#1F2A3D"/>
<path d="M648.684 484.466V501.162C648.684 501.769 648.38 502.376 647.773 502.376C645.952 502.983 642.309 503.286 637.149 503.286C633.81 503.286 631.381 502.679 630.167 501.769C628.649 500.858 628.042 498.733 628.042 495.698C628.042 490.234 630.774 488.412 636.542 488.412H644.13V485.073C644.13 482.038 642.309 480.824 638.059 480.824H630.774C630.167 480.824 630.167 480.824 630.167 480.217V478.395C630.167 477.788 630.167 477.788 630.774 477.485C632.899 477.181 635.327 476.878 638.059 476.878C645.345 476.878 648.684 479.306 648.684 484.466ZM644.13 492.359H636.542C633.81 492.359 632.595 493.269 632.595 496.001C632.595 499.037 634.113 499.947 638.059 499.947C640.791 499.947 642.613 499.644 644.13 499.34V492.359Z" fill="#1F2A3D"/>
</g>
<defs>
<clipPath id="clip0">
<rect width="710" height="513" fill="white"/>
</clipPath>
</defs>
</svg>
